<?xml version="1.0" standalone="no"?>
<!DOCTYPE svg PUBLIC "-//W3C//DTD SVG 20010904//EN"
 "http://www.w3.org/TR/2001/REC-SVG-20010904/DTD/svg10.dtd">
<svg version="1.0" xmlns="http://www.w3.org/2000/svg"
 width="2048.000000pt" height="2048.000000pt" viewBox="0 0 2048.000000 2048.000000"
 preserveAspectRatio="xMidYMid meet">
<metadata>
Created by potrace 1.16, written by Peter Selinger 2001-2019
</metadata>
<style>
  :root {
    --color-heart: #000000;
    --color-thick-band: #000000;
    --color-thin-band: #000000;
    --color-bubble: #000000;
  }
  .heart       { fill: var(--color-heart); }
  .thick-band  { fill: var(--color-thick-band); }
  .thin-band   { fill: var(--color-thin-band); }
  .bubble      { fill: var(--color-bubble); }
</style>
<g transform="translate(0.000000,2048.000000) scale(0.100000,-0.100000)"
fill="#000000" stroke="none">
<path class="bubble" d="M10167 18855 c-60 -15 -120 -71 -144 -133 -14 -37 -15 -53 -5 -98 14
-68 41 -107 95 -138 138 -79 285 -5 304 153 10 84 -27 155 -102 200 -42 25
-92 31 -148 16z"/>
<path class="thick-band" d="M7950 18557 c-219 -103 -383 -196 -610 -347 -295 -195 -392 -268
-650 -489 -301 -258 -630 -615 -916 -996 -164 -218 -217 -296 -377 -555 -55
-89 -170 -297 -200 -362 -14 -29 -55 -115 -91 -191 -164 -340 -336 -834 -407
-1167 -9 -47 -27 -128 -39 -180 -87 -388 -124 -762 -124 -1255 1 -553 34 -819
175 -1370 110 -430 252 -780 504 -1235 43 -77 237 -373 303 -461 86 -114 94
-124 231 -288 229 -275 599 -618 915 -849 281 -206 544 -362 801 -475 99 -44
93 -43 133 -34 64 13 32 81 -71 151 -167 113 -405 285 -457 330 -20 17 -53 45
-75 61 -150 115 -352 309 -555 532 -308 338 -543 683 -740 1088 -214 437 -365
913 -439 1385 -73 461 -71 1040 5 1495 8 50 23 140 34 202 10 62 21 116 24
121 3 5 10 35 15 68 21 119 44 213 93 379 28 94 52 179 55 190 3 11 8 29 13
40 4 11 24 70 44 130 31 97 82 232 120 320 7 17 19 46 26 65 24 65 145 327
208 450 73 143 161 298 273 479 21 34 39 67 39 71 0 5 4 10 8 12 4 2 39 50 77
108 38 58 105 152 149 210 136 178 268 344 295 370 14 14 46 50 70 80 51 62
411 423 486 487 178 151 220 186 305 254 127 101 257 197 415 304 134 91 402
255 415 255 5 0 10 4 12 8 3 7 377 195 473 237 22 10 67 30 100 46 33 15 121
50 195 79 151 57 200 88 200 126 0 29 -30 61 -66 70 -69 17 -626 -153 -869
-266 -11 -6 -65 -29 -120 -53 -138 -59 -403 -198 -600 -315 -250 -149 -463
-299 -750 -529 -127 -102 -478 -427 -571 -529 -221 -241 -483 -577 -674 -864
-56 -85 -111 -167 -121 -182 -11 -15 -19 -30 -19 -33 0 -3 -17 -32 -37 -63
-20 -31 -58 -98 -84 -148 -26 -50 -70 -132 -98 -182 -46 -82 -83 -162 -149
-314 -19 -44 -37 -66 -28 -35 2 6 11 44 21 82 9 39 21 79 26 90 5 11 31 83 58
160 44 127 64 175 106 271 77 171 179 388 201 429 9 17 32 59 52 95 71 134
183 322 251 424 25 37 55 82 66 100 21 34 262 358 291 393 11 12 26 30 34 40
123 153 287 334 505 557 82 85 378 338 550 471 201 156 233 179 612 428 81 53
118 87 95 87 -4 0 -68 -29 -142 -63z"/>
<path class="thick-band" d="M10675 18070 c-175 -21 -362 -51 -530 -86 -133 -27 -576 -155 -642
-185 -23 -10 -45 -19 -48 -19 -7 0 -45 -16 -110 -45 -16 -7 -68 -30 -115 -51
-340 -149 -730 -387 -1045 -638 -275 -220 -485 -419 -652 -621 -22 -27 -65
-79 -95 -115 -125 -151 -368 -491 -368 -516 0 -4 -7 -16 -17 -26 -9 -10 -21
-27 -27 -37 -6 -11 -40 -68 -75 -128 -66 -110 -167 -305 -232 -448 -75 -164
-209 -522 -238 -635 -5 -19 -17 -62 -26 -95 -150 -528 -204 -1096 -160 -1660
18 -230 27 -301 66 -520 30 -166 41 -202 63 -217 17 -12 61 -9 73 3 9 9 10 99
6 338 -9 459 11 677 103 1141 41 204 109 442 189 660 7 19 25 69 40 110 15 41
33 89 40 105 7 17 31 73 53 125 57 133 156 325 272 525 46 80 131 213 153 240
13 17 36 50 51 74 33 51 170 234 213 282 17 19 67 77 113 129 101 116 361 373
490 484 221 191 517 398 760 533 165 91 419 216 500 246 133 50 236 89 265
102 35 16 253 84 305 95 19 4 89 22 155 38 172 44 250 58 425 81 277 36 438
44 729 38 466 -9 770 -55 1236 -187 296 -84 699 -255 990 -420 236 -133 407
-244 594 -383 114 -84 288 -224 351 -281 25 -23 75 -66 110 -96 36 -30 139
-129 230 -220 509 -509 965 -1175 1269 -1855 49 -110 82 -185 100 -232 45
-113 63 -159 76 -188 48 -110 148 -426 209 -660 155 -594 204 -947 231 -1650
14 -352 -34 -989 -104 -1390 -25 -143 -140 -621 -175 -728 -8 -23 -31 -96 -51
-162 -54 -177 -80 -251 -156 -441 -67 -168 -233 -544 -268 -607 -10 -18 -46
-86 -81 -152 -35 -66 -88 -160 -117 -209 -29 -49 -53 -90 -53 -92 0 -5 -156
-250 -213 -334 -101 -149 -338 -461 -437 -576 -19 -22 -57 -67 -85 -100 -71
-84 -200 -219 -424 -446 -107 -109 -192 -200 -189 -204 14 -13 336 242 542
430 110 101 448 460 513 546 23 30 72 93 108 140 99 126 110 141 147 190 41
54 215 310 245 360 11 19 37 62 58 95 35 58 105 181 187 330 73 134 186 371
258 540 97 227 94 221 120 295 12 36 28 79 35 95 24 56 74 200 100 285 43 143
64 213 80 270 9 30 20 69 25 85 42 142 151 687 179 900 47 348 61 586 61 1000
0 440 -40 947 -95 1220 -3 17 -15 77 -26 135 -60 315 -73 366 -164 690 -62
217 -114 378 -170 525 -14 39 -34 93 -44 120 -21 58 -92 226 -127 301 -13 28
-24 55 -24 59 0 12 -205 418 -235 465 -14 22 -25 41 -25 44 0 16 -195 338
-279 461 -30 44 -78 114 -105 155 -53 80 -228 318 -267 365 -363 430 -725 788
-1065 1051 -182 141 -303 229 -385 280 -111 69 -184 118 -187 126 -2 5 -8 8
-12 8 -5 0 -64 32 -132 70 -125 72 -523 271 -568 285 -14 4 -48 18 -77 31 -28
13 -55 24 -58 24 -4 0 -21 6 -38 14 -18 7 -45 19 -62 25 -45 19 -294 98 -376
120 -41 10 -86 24 -102 30 -15 6 -39 13 -53 15 -14 3 -48 11 -77 20 -72 20
-305 62 -502 91 -271 39 -864 47 -1130 15z"/>
<path class="bubble" d="M15761 16806 c-84 -45 -133 -95 -168 -170 -24 -52 -28 -73 -28 -146
1 -71 5 -95 28 -145 35 -76 95 -138 172 -178 53 -27 70 -31 145 -31 71 -1 94
3 140 25 168 79 247 262 189 441 -19 61 -32 82 -79 129 -82 80 -134 103 -245
106 -86 2 -93 1 -154 -31z"/>
<path class="thick-band" d="M10900 16654 c-244 -23 -561 -67 -736 -104 -158 -33 -514 -137 -614
-180 -25 -10 -79 -33 -120 -50 -511 -213 -997 -539 -1350 -907 -182 -189 -213
-241 -169 -282 13 -11 30 -21 39 -21 14 0 126 79 140 99 8 12 208 172 290 232
464 344 1096 621 1690 743 286 58 512 79 845 79 281 0 420 -10 671 -49 304
-46 729 -166 969 -273 22 -10 63 -26 90 -37 65 -24 421 -205 505 -257 36 -22
90 -54 120 -72 136 -79 434 -295 585 -424 269 -230 492 -469 752 -806 141
-183 419 -665 528 -915 156 -359 228 -563 295 -838 117 -476 170 -879 170
-1291 0 -181 -14 -456 -30 -566 -5 -38 -14 -106 -20 -150 -36 -257 -155 -776
-205 -890 -7 -16 -17 -43 -23 -60 -41 -118 -77 -211 -84 -219 -4 -6 -8 -16 -8
-22 0 -7 -15 -45 -34 -86 -18 -40 -52 -116 -75 -168 -22 -52 -79 -164 -126
-248 -47 -85 -85 -156 -85 -159 0 -2 -11 -19 -25 -37 -14 -18 -25 -36 -25 -39
0 -9 -113 -186 -174 -272 -172 -244 -319 -417 -566 -666 -327 -329 -623 -565
-981 -781 -156 -94 -229 -150 -229 -175 0 -19 33 -16 83 6 23 11 85 38 137 61
161 70 423 212 570 309 116 76 400 291 515 390 297 255 567 548 807 879 55 77
207 312 221 342 4 8 18 33 32 55 14 22 28 47 32 55 3 8 16 31 28 50 12 19 41
71 65 115 42 79 71 121 55 80 -4 -11 -20 -56 -35 -100 -113 -329 -374 -836
-608 -1180 -95 -139 -367 -494 -406 -530 -6 -6 -33 -35 -60 -65 -246 -274
-546 -546 -866 -782 -129 -95 -154 -125 -155 -183 0 -49 27 -88 75 -110 32
-14 39 -14 79 0 81 28 386 225 576 372 451 348 760 661 1095 1108 70 94 133
181 141 195 8 13 30 47 49 75 34 47 124 191 184 295 15 25 43 77 62 115 20 39
46 88 59 110 33 58 105 203 105 212 0 5 9 26 20 47 12 21 30 61 41 89 11 28
29 70 40 93 10 24 19 46 19 49 0 4 6 21 14 38 18 41 60 156 82 227 9 30 20 64
25 75 46 124 86 272 155 570 90 385 134 806 134 1270 0 527 -47 909 -171 1413
-69 281 -198 681 -274 847 -7 17 -25 59 -40 95 -34 82 -151 320 -208 425 -24
44 -54 100 -68 125 -94 173 -307 496 -414 629 -16 21 -46 57 -65 81 -227 283
-604 658 -859 855 -123 95 -251 190 -323 240 -88 60 -237 155 -245 155 -3 0
-25 14 -50 30 -45 30 -164 95 -323 177 -137 70 -464 203 -640 261 -443 145
-905 219 -1415 226 -132 2 -260 2 -285 0z"/>
<path class="thick-band" d="M4133 16143 c-154 -190 -343 -474 -481 -725 -142 -259 -173 -320
-257 -503 -82 -181 -252 -639 -290 -785 -13 -47 -37 -135 -53 -196 -60 -215
-107 -464 -147 -784 -8 -63 -20 -146 -25 -185 -10 -67 -24 -267 -34 -488 -5
-124 9 -539 23 -672 76 -706 201 -1219 448 -1845 61 -155 293 -621 374 -751
30 -48 66 -106 80 -130 182 -302 414 -620 633 -869 204 -231 509 -532 720
-710 17 -14 48 -41 70 -61 78 -68 315 -246 465 -350 35 -24 71 -49 80 -55 185
-128 535 -331 771 -447 155 -76 473 -217 520 -232 14 -4 39 -13 55 -20 65 -29
317 -126 455 -175 130 -47 200 -75 325 -130 22 -10 69 -30 105 -45 118 -50
376 -187 425 -227 5 -4 53 -40 105 -79 269 -201 434 -441 487 -709 21 -109 13
-303 -17 -390 -72 -206 -202 -380 -357 -473 -197 -119 -349 -160 -593 -159
-159 0 -275 11 -390 38 -139 33 -480 145 -740 244 -179 68 -277 102 -445 157
-77 25 -147 48 -155 51 -14 5 -113 34 -175 51 -16 5 -57 17 -90 26 -91 26
-343 73 -500 92 -169 21 -528 23 -690 5 -407 -46 -778 -162 -1085 -339 -355
-205 -630 -462 -850 -793 -149 -225 -250 -458 -334 -770 -37 -139 -75 -391
-59 -390 5 1 49 65 98 142 174 273 334 469 559 683 193 183 272 245 486 386
143 94 459 258 555 289 22 7 45 16 50 20 41 31 484 149 670 178 422 67 897 54
1343 -39 53 -11 151 -30 217 -44 126 -25 241 -54 441 -110 265 -76 645 -165
825 -194 79 -13 356 -33 384 -27 11 2 65 7 120 11 361 26 682 185 884 439 64
80 140 205 174 286 101 240 94 641 -15 900 -64 152 -174 310 -333 477 -30 32
-55 61 -55 65 0 15 117 -48 240 -128 186 -122 348 -276 467 -443 157 -219 244
-546 214 -801 -21 -171 -52 -274 -122 -405 -124 -235 -301 -408 -551 -539
-317 -167 -676 -238 -1113 -222 -99 4 -193 9 -210 11 -167 26 -811 43 -979 26
-277 -29 -465 -66 -705 -140 -283 -88 -618 -264 -822 -432 -118 -97 -279 -252
-353 -339 -175 -207 -353 -497 -432 -707 -44 -114 -86 -244 -82 -249 2 -2 31
38 64 89 163 255 400 492 664 667 368 243 767 368 1235 385 149 6 169 9 285
45 69 22 157 46 195 54 39 8 77 17 85 20 26 9 290 45 410 56 165 14 546 12
750 -5 722 -61 1038 -60 1365 6 255 51 392 97 585 196 313 162 566 388 730
653 116 188 178 345 210 537 73 432 -53 905 -337 1263 -69 87 -192 214 -200
206 -2 -2 7 -22 21 -44 39 -62 134 -254 142 -287 4 -17 10 -35 15 -40 8 -11
39 -126 71 -265 29 -130 32 -432 5 -560 -68 -319 -192 -543 -433 -783 -139
-138 -256 -222 -419 -301 -122 -59 -300 -124 -310 -114 -3 3 18 17 45 32 101
55 303 233 418 368 40 47 72 89 72 93 0 4 15 28 34 54 106 147 170 303 215
526 41 209 37 377 -15 620 -55 253 -138 425 -317 660 -225 295 -608 586 -1012
769 -44 20 -93 43 -110 51 -160 74 -585 229 -800 290 -117 34 -350 107 -380
120 -16 7 -46 16 -65 20 -94 19 -706 236 -720 256 -3 3 -16 10 -30 14 -14 4
-43 15 -65 25 -22 10 -69 30 -105 45 -86 35 -452 216 -468 232 -6 6 -21 15
-32 18 -20 6 -202 110 -286 162 -461 289 -790 558 -1200 984 -126 131 -306
341 -379 443 -16 23 -50 67 -75 98 -87 108 -290 418 -394 601 -247 435 -394
783 -562 1330 -74 239 -175 789 -206 1112 -9 93 -13 283 -12 570 1 401 3 444
28 640 27 222 44 318 102 610 35 174 70 322 98 415 8 25 29 92 46 150 63 204
176 511 239 645 16 33 43 94 62 135 45 100 222 449 254 499 14 23 25 43 25 45
0 2 28 51 61 108 118 199 169 289 169 298 0 24 -23 3 -97 -87z"/>
<path class="thin-band" d="M16467 15710 c-15 -17 -27 -41 -27 -52 0 -18 42 -110 87 -188 66
-114 95 -170 160 -305 109 -230 144 -307 213 -470 34 -82 70 -168 80 -190 9
-22 23 -58 30 -80 7 -22 24 -69 38 -105 14 -36 29 -81 34 -100 6 -19 16 -48
23 -65 21 -48 69 -202 144 -465 108 -376 222 -973 265 -1385 66 -627 69 -1164
10 -1785 -30 -318 -60 -513 -128 -840 -80 -382 -82 -390 -166 -680 -13 -41
-31 -106 -42 -145 -12 -38 -38 -123 -59 -189 -46 -139 -53 -211 -24 -232 23
-17 66 -18 87 -1 20 15 101 151 117 197 7 19 19 46 26 61 8 14 23 52 35 85 18
51 35 94 71 179 28 67 70 183 98 270 18 55 38 114 46 130 12 28 20 52 66 205
90 298 160 618 213 975 72 479 80 585 80 1060 0 279 -4 469 -12 540 -56 490
-90 721 -137 936 -33 150 -55 239 -65 264 -4 11 -23 76 -41 145 -93 353 -263
797 -452 1175 -146 294 -304 569 -435 760 -190 275 -219 309 -279 321 -25 5
-34 0 -56 -26z"/>
<path class="bubble" d="M12485 15390 c-3 -5 -14 -10 -23 -10 -30 0 -94 -62 -118 -114 -29
-63 -30 -109 -4 -180 74 -195 354 -196 423 -1 33 95 18 169 -48 243 -33 37
-56 52 -89 61 -56 14 -133 14 -141 1z"/>
<path class="heart" d="M9960 14930 c-639 -63 -1308 -334 -1649 -669 -111 -109 -185 -257
-222 -444 -27 -136 -22 -399 10 -522 59 -224 196 -467 376 -668 148 -165 204
-213 566 -484 286 -215 477 -385 618 -549 273 -319 322 -375 405 -462 112
-117 303 -283 546 -474 283 -222 540 -474 695 -678 195 -259 292 -426 407
-700 120 -285 185 -524 232 -848 2 -12 -1 -25 -5 -28 -5 -3 -9 0 -9 6 0 32
-193 482 -236 552 -13 20 -43 74 -67 120 -130 249 -376 592 -564 784 -141 145
-305 283 -528 444 -463 333 -648 493 -924 795 -254 277 -404 421 -571 546 -85
64 -168 124 -185 135 -73 46 -349 261 -444 346 -292 261 -525 640 -620 1008
-34 132 -53 310 -45 423 4 51 2 77 -5 77 -15 0 -108 -129 -164 -225 -154 -268
-264 -580 -323 -910 -24 -133 -27 -183 -31 -443 -5 -303 0 -389 38 -612 30
-178 56 -282 111 -445 108 -322 181 -471 433 -884 28 -45 55 -89 60 -99 6 -9
43 -73 84 -141 88 -149 106 -188 159 -351 52 -161 66 -224 87 -390 21 -159 16
-451 -9 -590 -20 -109 -76 -329 -115 -449 -45 -135 -197 -428 -266 -510 -43
-50 -35 -63 66 -111 51 -23 115 -50 143 -60 56 -20 112 -42 226 -88 41 -17
107 -43 145 -57 59 -23 414 -167 480 -195 11 -5 69 -32 129 -59 59 -28 111
-51 113 -51 14 0 375 -184 478 -244 66 -38 140 -80 165 -94 103 -56 484 -312
621 -416 54 -42 224 -181 239 -196 3 -3 50 -45 104 -95 150 -135 310 -323 475
-554 93 -131 229 -418 288 -611 65 -208 82 -308 86 -485 5 -257 -16 -377 -114
-640 -50 -133 -61 -156 -140 -281 -180 -288 -432 -514 -764 -686 -73 -37 -295
-128 -317 -129 -7 0 -4 -4 7 -8 45 -18 474 28 550 59 11 5 43 13 70 20 184 41
488 173 655 285 361 242 628 557 809 956 40 90 105 318 146 516 18 86 34 5 40
-192 4 -155 -3 -226 -44 -405 -81 -362 -190 -589 -423 -882 -234 -295 -660
-570 -1055 -682 -363 -103 -809 -118 -1323 -45 -80 11 -172 24 -205 29 -33 5
-134 22 -225 39 -223 42 -459 78 -610 93 -186 18 -539 15 -685 -7 -66 -9 -124
-20 -129 -22 -25 -15 37 -22 204 -22 537 0 1010 -164 1444 -499 44 -34 94 -64
110 -67 372 -59 809 -79 1096 -50 249 25 293 33 505 90 254 68 521 195 754
358 461 324 823 842 956 1371 51 204 70 361 69 586 -1 327 -51 608 -155 870
-98 248 -162 362 -360 645 -73 104 -278 345 -409 480 -345 358 -410 429 -487
539 -107 152 -153 284 -153 438 0 194 66 334 178 378 39 15 178 9 322 -15 56
-9 158 -15 250 -15 131 0 171 3 255 24 200 49 342 122 455 236 85 84 173 229
211 344 11 33 24 70 29 81 58 122 253 874 390 1505 51 236 103 607 137 985 24
269 24 856 0 1085 -70 655 -153 997 -349 1430 -134 295 -247 474 -462 730
-126 149 -228 251 -392 390 -101 86 -350 263 -397 282 -10 4 -48 25 -85 47
-147 86 -246 131 -480 221 -211 81 -485 148 -717 176 -140 17 -640 26 -765 14z
m602 -440 c248 -26 532 -93 760 -180 124 -47 422 -199 535 -273 468 -303 816
-724 1039 -1257 110 -261 154 -403 208 -662 125 -595 125 -1399 0 -2083 -30
-166 -93 -478 -98 -482 -1 -2 -1 127 2 286 9 581 -48 1173 -162 1678 -53 234
-165 589 -236 748 -189 422 -351 682 -616 985 -440 503 -1032 850 -1709 1005
-244 56 -369 69 -667 69 -153 1 -278 4 -278 7 0 20 253 90 448 125 225 41 562
55 774 34z m-1423 -4449 c23 -27 41 -53 41 -59 0 -6 4 -12 9 -14 14 -5 123
-221 175 -348 130 -312 290 -582 454 -765 230 -258 599 -551 985 -782 48 -29
90 -53 93 -53 2 0 23 -12 45 -26 57 -36 126 -74 191 -105 127 -62 238 -121
238 -128 0 -11 -143 19 -280 57 -290 82 -705 270 -939 427 -204 136 -387 290
-481 405 -25 30 -52 62 -60 71 -39 42 -144 197 -202 299 -56 99 -170 416 -206
575 -11 45 -97 409 -106 445 -2 8 -7 23 -11 33 -14 33 13 17 54 -32z m471
-2024 c58 -92 121 -178 252 -348 76 -100 324 -361 444 -469 186 -167 205 -183
289 -248 44 -33 105 -80 135 -103 440 -338 707 -586 892 -829 74 -97 152 -216
170 -257 7 -15 25 -47 40 -70 34 -51 54 -96 124 -281 107 -284 146 -536 125
-812 -7 -85 -16 -159 -20 -163 -5 -5 -11 16 -15 45 -15 119 -62 329 -103 463
-104 345 -307 672 -613 989 -118 122 -417 390 -606 541 -278 223 -621 571
-779 791 -82 114 -180 266 -217 335 -90 167 -189 416 -202 509 -7 52 -13 58
84 -93z"/>
<path class="thin-band" d="M13240 14674 c0 -18 4 -22 226 -264 358 -390 561 -677 767 -1081 149
-295 184 -375 262 -596 126 -356 210 -709 259 -1089 37 -279 39 -727 6 -1014
-26 -215 -113 -644 -167 -813 -41 -130 -134 -398 -154 -444 -11 -23 -19 -44
-19 -46 0 -6 -93 -204 -147 -312 -123 -249 -228 -418 -432 -698 -113 -155
-139 -196 -147 -230 -8 -38 -2 -42 35 -22 70 36 356 334 521 543 40 51 200
280 200 287 0 3 16 29 35 59 19 30 35 57 35 60 0 3 13 24 29 48 16 24 57 99
92 168 35 69 67 127 72 128 4 2 7 8 7 14 0 6 13 38 29 72 16 33 48 111 70 171
23 61 45 119 51 130 33 70 131 433 174 645 78 379 96 922 45 1315 -39 301
-150 761 -228 945 -5 14 -22 57 -36 95 -159 424 -365 782 -654 1140 -149 184
-280 322 -482 505 -110 100 -336 279 -366 291 -40 15 -83 11 -83 -7z"/>
<path class="bubble" d="M3980 14556 c-71 -21 -92 -32 -133 -71 -47 -44 -76 -109 -84 -186 -5
-50 -2 -66 21 -113 53 -109 163 -174 276 -163 220 20 325 269 186 443 -39 49
-94 81 -161 93 -32 6 -59 11 -59 10 -1 0 -21 -6 -46 -13z"/>
<path class="thin-band" d="M5890 14135 c-48 -102 -57 -127 -115 -300 -49 -148 -75 -252 -104
-410 -64 -357 -74 -470 -75 -800 -1 -316 6 -397 59 -725 41 -250 157 -656 236
-828 78 -168 142 -294 190 -377 28 -49 60 -104 70 -122 68 -121 263 -386 397
-541 223 -259 627 -597 845 -707 60 -30 113 -55 118 -55 6 0 -63 72 -153 160
-90 88 -166 160 -170 160 -19 0 -385 425 -469 544 -120 171 -146 209 -193 281
-100 154 -271 482 -354 680 -147 350 -286 835 -331 1155 -43 306 -58 820 -32
1085 23 228 55 453 89 630 31 158 45 246 38 252 -3 3 -24 -33 -46 -82z"/>
<path class="thin-band" d="M3884 13333 c-25 -18 -33 -58 -50 -244 -18 -209 -15 -620 5 -769 6
-41 22 -165 36 -275 32 -248 67 -444 106 -600 31 -121 112 -406 128 -448 5
-12 16 -40 24 -62 9 -22 35 -92 57 -155 77 -211 178 -431 290 -630 26 -47 69
-123 95 -170 105 -186 355 -542 497 -707 29 -34 85 -99 124 -145 78 -91 341
-350 444 -438 219 -188 487 -385 720 -530 152 -95 460 -255 625 -326 106 -45
195 -67 195 -47 0 5 -62 47 -137 93 -362 223 -689 457 -878 629 -448 408 -737
747 -1085 1271 -63 94 -185 300 -253 425 -73 135 -257 499 -257 509 0 3 -23
61 -51 128 -74 176 -163 411 -219 578 -52 155 -179 641 -205 787 -60 331 -99
646 -121 990 -4 57 -12 109 -18 117 -13 18 -57 29 -72 19z"/>
<path class="thin-band" d="M2864 10030 c4 -14 11 -45 16 -70 87 -431 284 -963 522 -1419 39 -75
79 -148 90 -163 10 -14 18 -29 18 -32 0 -23 258 -424 364 -566 23 -30 50 -68
60 -84 27 -43 147 -195 249 -316 184 -218 534 -570 787 -791 235 -205 633
-496 835 -609 33 -19 62 -37 65 -41 3 -4 24 -18 47 -31 23 -12 72 -41 110 -62
37 -22 110 -64 162 -93 51 -30 164 -88 250 -129 86 -41 167 -81 181 -89 62
-33 261 -105 292 -105 20 0 65 15 104 35 81 41 110 79 126 165 13 75 -9 156
-55 205 -34 37 -157 101 -247 130 -30 10 -59 21 -65 25 -5 4 -21 11 -35 15
-14 4 -54 21 -90 37 -139 64 -176 80 -214 96 -83 37 -513 257 -536 276 -8 7
-49 32 -90 56 -395 230 -689 444 -1040 755 -439 389 -829 836 -1160 1330 -37
55 -75 114 -84 130 -9 17 -24 42 -34 57 -192 302 -424 785 -585 1218 -11 30
-27 64 -35 75 -14 19 -14 19 -8 -5z"/>
<path class="bubble" d="M16687 7819 c-137 -33 -216 -142 -205 -283 9 -111 82 -210 174 -236
68 -20 163 -16 211 8 53 28 108 88 133 147 54 125 -13 288 -144 348 -42 20
-122 28 -169 16z"/>
<path class="thin-band" d="M11860 6726 c0 -12 99 -153 152 -218 29 -35 168 -180 309 -323 306
-311 336 -344 512 -563 63 -78 202 -291 250 -382 124 -235 226 -549 268 -825
21 -139 19 -510 -5 -660 -47 -304 -146 -598 -284 -844 -118 -212 -205 -326
-461 -610 -40 -44 -69 -81 -65 -81 28 0 276 142 397 227 181 128 406 361 545
564 103 152 228 445 292 684 65 246 69 578 11 930 -19 115 -118 383 -198 535
-215 409 -468 674 -972 1014 -79 54 -149 102 -155 107 -6 5 -59 40 -117 78
-149 97 -281 196 -369 277 -87 80 -110 99 -110 90z"/>
<path class="bubble" d="M7874 5365 c-114 -25 -218 -95 -285 -191 -15 -23 -40 -77 -55 -120
-23 -69 -26 -91 -22 -174 4 -86 8 -103 43 -174 46 -93 105 -157 194 -208 82
-47 152 -62 268 -56 78 4 103 10 155 36 174 86 269 239 269 432 -1 138 -59
264 -162 350 -74 62 -120 86 -201 105 -76 18 -123 18 -204 0z"/>
</g>
<defs><linearGradient id="grad-thick-band-light" gradientUnits="userSpaceOnUse" x1="0" y1="20480" x2="20480" y2="0"><stop offset="0%" stop-color="#BF360C"/><stop offset="50%" stop-color="#E64A19"/><stop offset="100%" stop-color="#FF7043"/></linearGradient><linearGradient id="grad-thin-band-light" gradientUnits="userSpaceOnUse" x1="0" y1="20480" x2="20480" y2="0"><stop offset="0%" stop-color="#00695C"/><stop offset="50%" stop-color="#00897B"/><stop offset="100%" stop-color="#26A69A"/></linearGradient><linearGradient id="grad-thick-band-dark" gradientUnits="userSpaceOnUse" x1="0" y1="20480" x2="20480" y2="0"><stop offset="0%" stop-color="#FF7043"/><stop offset="50%" stop-color="#FF8A65"/><stop offset="100%" stop-color="#FFAB91"/></linearGradient><linearGradient id="grad-thin-band-dark" gradientUnits="userSpaceOnUse" x1="0" y1="20480" x2="20480" y2="0"><stop offset="0%" stop-color="#26A69A"/><stop offset="50%" stop-color="#4DB6AC"/><stop offset="100%" stop-color="#80CBC4"/></linearGradient></defs><style>@media(prefers-color-scheme:light){.heart{fill:#BF360C}.thick-band{fill:url(#grad-thick-band-light)}.thin-band{fill:url(#grad-thin-band-light)}.bubble{fill:#006064}}@media(prefers-color-scheme:dark){.heart{fill:#FFAB91}.thick-band{fill:url(#grad-thick-band-dark)}.thin-band{fill:url(#grad-thin-band-dark)}.bubble{fill:#80DEEA}}</style>
</svg>
