<svg xmlns="http://www.w3.org/2000/svg" width="682.667" height="682.667" style="--color-primary:#000000;--color-secondary:#000000;--color-tertiary:#000000;--color-accent:#000000" viewBox="0 0 512 512"><style>.secondary{fill:var(--color-secondary)}.tertiary{fill:var(--color-tertiary)}.accent{fill:var(--color-accent)}.accent,.secondary,.tertiary{fill:#09f}</style><path d="M2490 5008c0-7 9-38 21-68 17-44 20-72 17-140-5-123-33-175-175-322-88-90-120-132-144-183-42-88-54-75-53 53l2 97-59-63c-71-78-149-230-178-351-62-253 32-543 224-688 210-160 490-188 724-72 109 54 220 161 274 265 106 206 100 468-15 699-35 69-66 115-77 115-5 0-11-29-14-65-8-79-27-118-66-134-43-19-82 3-99 54-10 31-11 58-1 132 6 51 10 133 7 182-4 80-8 98-45 173-24 47-66 110-98 146-80 88-245 202-245 170m-182-1099c86-42 162-144 162-217 0-40-36-91-75-108-135-56-325 87-325 245 0 100 115 139 238 80m682 15c42-17 70-55 70-94 0-89-73-194-165-236-162-76-283 47-197 199 36 63 85 104 154 128 66 23 87 23 138 3" style="fill:#09f" transform="matrix(.1 0 0 -.1 0 512)"/><path d="M226.4 127.5c-4.4 6.8-3.7 17 1.6 21.7 3.8 3.5 5.4 3.5 9 0 6.4-6.5 5.8-14.9-1.6-21-4.6-3.8-6.8-4-9-.7M276.9 128.7c-6.4 5.4-7.1 13-1.8 19.7 2.8 3.6 8.3 3.3 11.1-.5 5.7-7.6 3.2-21.9-3.8-21.9-1.2 0-3.7 1.2-5.5 2.7" class="accent"/><path d="M235 30.6c0 1.5-1.6 5.8-3.5 9.5-3.8 7.5-4.7 14.5-2 15.5 2.1.9 9.1-7 10.9-12.3 1.6-4.6 1-8.5-1.9-12.9-2-3.1-3.5-3-3.5.2M298.2 50.7c-1.6 4.1-1.7 5.1-.9 12 .9 7.1 2.2 8.6 4.9 5.3 2.1-2.6 2.3-7.4.4-14.4-1.5-5.9-2.9-6.7-4.4-2.9" class="tertiary"/><path d="M198.2 185c-9 5.7-14.9 11.5-20.3 19.7-11.8 18.1-16.4 39.3-11.9 54.7.7 2.3 3.3 6.1 6.8 9.6 7.1 7.3 13.4 9.5 26.2 9.4 10.9-.1 19-2.3 31.5-8.4 9.5-4.7 14.6-8.4 32-22.8 10.2-8.6 17.5-12.9 26.3-15.5 3.9-1.1 7.2-2.7 7.2-3.3 0-.7-3.5-3-7.7-5.1-7.4-3.6-8.1-3.8-17.7-3.8-11.1.1-14.9 1.2-38.6 11.1-11.2 4.7-11.9 4.8-24 5.4-10.7.5-13.3.9-18.2 3.2-3.2 1.5-5.8 2.4-5.8 2 0-1.9 4.4-6.9 7.7-8.8 2.6-1.4 4.1-3.1 4.7-5.5 1.4-4.8 8.3-11.3 14.1-13.2 8.8-3 22.3-1.3 30.2 3.8 2 1.4 3 1.3 10-1 12.4-4.1 21.5-5.1 29.2-3.1 7.1 1.8 15.5 5.7 18.7 8.7 3.3 3.1 4.4 2.4 4.4-2.7 0-3 .4-4.3 1.1-3.8 1.5.9 4.9 9.1 4.9 12 0 2 .9 2.9 4.3 4.3 3.9 1.7 10.4 7.7 9.4 8.8-.3.2-2.4-.6-4.7-1.8-6-3.2-17.9-3.8-26.7-1.4-7.6 2.1-21.2 10.7-28.2 17.8l-4.4 4.6 5.4 3.4c13.1 8.3 35.7 15.7 48.1 15.7 11.6 0 23.3-5.8 29.3-14.5 4.5-6.6 5.9-12.7 5.2-22.8-1.7-24-16.5-48-36-58.6l-4.4-2.4-6.3 5.1c-23 18.6-62.9 18.7-87 .2-3.6-2.7-7-4.9-7.6-5-.6 0-3.9 1.8-7.2 4" class="secondary"/><path d="M211.4 219.9c-4.2 1.9-8.4 6.3-8.4 8.9 0 1.2 1.5 1.4 8.8 1 7.2-.3 9.9-1 16-3.8 4-1.8 7.1-3.8 6.9-4.3-1.2-3.6-16.7-4.8-23.3-1.8M247.5 268.2c-10.4 7.8-25.2 14-37.5 15.7-4 .5-7.7 1.4-8.2 1.9-1.4 1.4 2.8 13 7.8 21.7 9.8 16.7 23.1 26.4 48.6 35.4 21.9 7.8 27 10.6 30.3 17.2 3.8 7.3.9 13.1-11 21.9-11.8 8.7-15 13.6-15 23 0 7.8 1.4 8.4 5.4 2.5 4.3-6.5 10.1-9.6 26.3-14.3 25.1-7.2 34.1-12.8 39.8-24.8 4-8.4 5.3-16.1 3.9-23.9-1.6-8.9-5.4-15.6-14-25.1-9.7-10.5-13.1-17.2-13.4-25.8-.1-3.5-.5-6.8-.8-7.3-.4-.6-3.1-1.3-6-1.6-12.2-1.2-31-7.7-43.2-14.8-8.5-5-8.7-5-13-1.7" class="secondary"/></svg>