<svg xmlns="http://www.w3.org/2000/svg" xml:space="preserve" width="1000" height="1000" viewBox="0 0 264.583 264.583"><path d="M179.761 284.541c1.048-.455 1.405-1.562.85-2.633-.547-1.059-1.774-1.953-5.647-4.12-3.194-1.785-5.228-3.041-5.228-3.228 0-.06 1.076-.478 2.391-.93 2.947-1.015 5.39-2.563 10.028-6.353 3.936-3.217 8.885-6.567 14.211-9.62 4.136-2.37 4.934-3.043 4.82-4.058-.11-.978-1.19-1.592-3.703-2.105-2.067-.422-2.382-.42-14.855.061-2.416.094-4.717.086-5.114-.017-.418-.108-1.802-1.286-3.29-2.798-3.047-3.098-4.44-3.877-7.391-4.135-1.08-.094-1.962-.195-1.962-.224s.23-.744.512-1.59c.635-1.907.647-3.901.031-5.301-.258-.588-1.132-1.808-1.942-2.712-1.301-1.452-1.585-1.644-2.432-1.644-.831 0-1.138.195-2.288 1.451-.73.798-1.551 1.96-1.824 2.58-.68 1.548-.675 4.425.01 5.986.28.634.507 1.183.507 1.22s-.981.129-2.18.206c-3.501.226-5.698 1.707-8.249 5.563-1.131 1.71-1.555 1.646-3.763-.564-1.997-2-3-2.614-5.615-3.448-3.917-1.247-8.779-.2-11.69 2.517-2.016 1.882-3.109 5.812-2.586 9.297.557 3.71 1.76 6.176 4.01 8.222 1.833 1.668 3.993 2.274 10.997 3.085 4.27.494 4.155.462 6.186 1.746 3.216 2.034 6.937 3.665 8.385 3.675 1.499.01-2.395 2.34-6.844 4.095-3.02 1.191-4.27 2.284-4.27 3.735 0 1.225.94 2.225 2.1 2.235 18.412.167 35.214.076 35.835-.194m-42.53-21.78c-4.683-1.272-6.606-2.36-7.345-4.152-1.265-3.067.969-6.16 4.448-6.16 3.074 0 4.026 1.084 5.303 6.039.496 1.924 1.079 3.853 1.296 4.286.38.762.375.787-.19.785-.32 0-1.9-.36-3.512-.797m65.136-17.375c.2-.539-1.577-4.437-3.233-7.093-.636-1.018-1.937-2.864-2.892-4.1-6.387-8.275-9.277-15.975-8.367-22.297 1.007-6.998 5.127-11.531 17.556-19.316 15.51-9.714 19.326-12.439 24.24-17.312 4.166-4.133 7.167-8.252 9.45-12.973 2.73-5.646 3.474-8.949 3.442-15.283-.027-5.3-.431-7.275-2.287-11.17-5.721-12.01-19.55-16.2-36.877-11.172-8.872 2.574-22.555 9.656-33.914 17.553-5.698 3.961-7.96 6.568-8.86 10.208-1.317 5.335 1.318 10.324 5.452 10.324 1.558 0 3.312-.848 7.793-3.765 12.372-8.057 20.408-11.526 26.085-11.261 3.993.186 5.89 1.78 6.097 5.124.088 1.44-.004 1.913-.656 3.342-1.5 3.287-4.748 6.494-10.72 10.586-3.429 2.35-4.025 2.739-10.235 6.69-11.356 7.223-17.49 14.168-19.863 22.49-.536 1.878-.603 2.65-.603 6.878 0 4.373.057 4.973.694 7.33 1.337 4.937 3.593 8.916 7.372 13 3.773 4.079 7.811 7.191 16.73 12.896 2.92 1.867 5.142 3.527 6.88 5.139 4.794 4.444 6.276 5.368 6.716 4.182m-12.018-125.67c10.226-1.298 18.007-5.41 24.562-12.978 6.805-7.857 9.836-18.386 8.59-29.84-1.365-12.568-9.436-24.282-20.605-29.907-11.882-5.984-24.901-4.974-36.246 2.813-4.994 3.428-10.218 9.705-12.762 15.334-2.275 5.035-3.085 8.727-3.275 14.935-.177 5.771.235 9.063 1.708 13.653 1.671 5.211 3.89 9.255 7.103 12.945 6.361 7.308 14.54 11.808 23.5 12.931 2.18.273 5.738.328 7.425.114" style="fill:#000;fill-opacity:1;stroke-width:.983763" transform="translate(-49.177 -31.514)"/></svg>