<?xml version="1.0" encoding="UTF-8" standalone="no"?>
<!-- Created with Inkscape (http://www.inkscape.org/) -->

<svg
   width="1000"
   height="1000"
   viewBox="0 0 264.58333 264.58333"
   version="1.1"
   id="svg1"
   xml:space="preserve"
   inkscape:version="1.4 (e7c3feb1, 2024-10-09)"
   sodipodi:docname="logo-sogenio-v2.svg"
   xmlns:inkscape="http://www.inkscape.org/namespaces/inkscape"
   xmlns:sodipodi="http://sodipodi.sourceforge.net/DTD/sodipodi-0.dtd"
   xmlns:xlink="http://www.w3.org/1999/xlink"
   xmlns="http://www.w3.org/2000/svg"
   xmlns:svg="http://www.w3.org/2000/svg"><sodipodi:namedview
     id="namedview1"
     pagecolor="#505050"
     bordercolor="#ffffff"
     borderopacity="1"
     inkscape:showpageshadow="0"
     inkscape:pageopacity="0"
     inkscape:pagecheckerboard="1"
     inkscape:deskcolor="#505050"
     inkscape:document-units="mm"
     inkscape:zoom="0.59757076"
     inkscape:cx="260.22023"
     inkscape:cy="478.60441"
     inkscape:window-width="1856"
     inkscape:window-height="1173"
     inkscape:window-x="91"
     inkscape:window-y="83"
     inkscape:window-maximized="0"
     inkscape:current-layer="layer1" /><defs
     id="defs1">
    <!-- Gradient for the genie: electric blue head, electric green body, golden yellow lamp -->
    <linearGradient
   id="genieGradient"
   x1="68.849365"
   y1="22.509537"
   x2="68.849365"
   y2="195.13815"
   gradientTransform="scale(0.71426981,1.4000312)"
   gradientUnits="userSpaceOnUse">
      <!-- Electric blue for head (top) -->
      <stop
   offset="0%"
   style="stop-color:#00D4FF;stop-opacity:1"
   id="stop1" />
      <stop
   offset="15%"
   style="stop-color:#0096FF;stop-opacity:1"
   id="stop2" />
      <stop
   offset="30%"
   style="stop-color:#0080FF;stop-opacity:1"
   id="stop3" />
      <!-- Transition to electric green for body -->
      <stop
   offset="45%"
   style="stop-color:#00E5A0;stop-opacity:1"
   id="stop4" />
      <stop
   offset="60%"
   style="stop-color:#00FF87;stop-opacity:1"
   id="stop5" />
      <stop
   offset="70%"
   style="stop-color:#00E676;stop-opacity:1"
   id="stop6" />
      <!-- Golden yellow for lamp (bottom) -->
      <stop
   offset="80%"
   style="stop-color:#FFD700;stop-opacity:1"
   id="stop7" />
      <stop
   offset="90%"
   style="stop-color:#FFC107;stop-opacity:1"
   id="stop8" />
      <stop
   offset="100%"
   style="stop-color:#FFAB00;stop-opacity:1"
   id="stop9" />
    </linearGradient>
  <linearGradient
   inkscape:collect="always"
   xlink:href="#genieGradient"
   id="linearGradient1"
   gradientUnits="userSpaceOnUse"
   gradientTransform="matrix(-0.69126264,0,0,1.4000312,290.1568,11.619799)"
   x1="68.849365"
   y1="22.509537"
   x2="68.849365"
   y2="195.13815" /></defs><g
     inkscape:label="Layer 1"
     inkscape:groupmode="layer"
     id="layer1"
     transform="translate(-49.177025,-31.514052)"><path
       style="fill:url(#linearGradient1);fill-opacity:1;stroke-width:0.983763"
       d="m 179.761,284.54129 c 1.04761,-0.45529 1.4052,-1.56213 0.85076,-2.63341 -0.54784,-1.05854 -1.77469,-1.95329 -5.64775,-4.11894 -3.19435,-1.78615 -5.22791,-3.0422 -5.22791,-3.2291 0,-0.0589 1.07602,-0.47756 2.39116,-0.93028 2.94695,-1.01445 5.39,-2.56214 10.02779,-6.35266 3.93644,-3.2173 8.88479,-6.56705 14.21138,-9.6203 4.13537,-2.37044 4.93404,-3.04282 4.81939,-4.05734 -0.11061,-0.97873 -1.18889,-1.59177 -3.70252,-2.10501 -2.06714,-0.42208 -2.38218,-0.42079 -14.85556,0.0611 -2.41586,0.0933 -4.71702,0.0855 -5.11369,-0.0174 -0.4177,-0.10832 -1.802,-1.28578 -3.28935,-2.79784 -3.0473,-3.09792 -4.44083,-3.87751 -7.39176,-4.13526 -1.0791,-0.0943 -1.962,-0.19479 -1.962,-0.22342 0,-0.0286 0.23046,-0.74417 0.51212,-1.59009 0.63507,-1.90727 0.64683,-3.90135 0.0313,-5.30156 -0.25828,-0.58752 -1.13237,-1.80791 -1.94242,-2.71198 -1.30108,-1.4521 -1.58468,-1.64376 -2.43232,-1.64376 -0.83058,0 -1.13802,0.19502 -2.28771,1.45111 -0.73051,0.79811 -1.55129,1.95897 -1.82396,2.57969 -0.68004,1.54811 -0.67487,4.42485 0.0108,5.98612 0.27858,0.63435 0.5065,1.18312 0.5065,1.21947 0,0.0364 -0.98124,0.12936 -2.18054,0.20667 -3.50071,0.22567 -5.69764,1.70739 -8.24867,5.56329 -1.13099,1.70953 -1.55541,1.64592 -3.76278,-0.56397 -1.99738,-1.99966 -2.99933,-2.61484 -5.61569,-3.44798 -3.91695,-1.2473 -8.77845,-0.2007 -11.68915,2.51645 -2.0162,1.88215 -3.10939,5.81225 -2.58609,9.29725 0.55694,3.70904 1.75977,6.17583 4.00882,8.22142 1.83419,1.66825 3.99412,2.2742 10.99756,3.08527 4.26992,0.49449 4.15577,0.46227 6.18602,1.74628 3.21581,2.0338 6.93749,3.66497 8.38512,3.6751 1.49901,0.0105 -2.39532,2.34045 -6.84382,4.09462 -3.02087,1.19122 -4.27049,2.28411 -4.27049,3.73485 0,1.22533 0.93957,2.22524 2.10086,2.23576 18.41181,0.16685 35.21346,0.0758 35.83467,-0.19416 z m -42.53048,-21.77978 c -4.68215,-1.27218 -6.60542,-2.3596 -7.34489,-4.15281 -1.26474,-3.06701 0.96892,-6.16006 4.44852,-6.16006 3.07386,0 4.02631,1.08469 5.30286,6.03909 0.49585,1.92444 1.07883,3.85324 1.29552,4.2862 0.38132,0.76194 0.37526,0.78715 -0.18875,0.78552 -0.32049,-9.3e-4 -1.90146,-0.36 -3.51326,-0.79794 z m 65.13687,-17.37538 c 0.20007,-0.53872 -1.57712,-4.43672 -3.23372,-7.0927 -0.63536,-1.01865 -1.93645,-2.86412 -2.89132,-4.10104 -6.38725,-8.27398 -9.27731,-15.97485 -8.36744,-22.29595 1.00743,-6.99891 5.12737,-11.53189 17.55596,-19.316 15.51044,-9.7143 19.32574,-12.43931 24.2394,-17.31253 4.16685,-4.13255 7.16757,-8.25178 9.45068,-12.9734 2.72987,-5.64554 3.47369,-8.94821 3.44188,-15.28233 -0.0266,-5.29977 -0.43101,-7.2753 -2.28656,-11.17032 -5.72127,-12.00959 -19.55069,-16.19937 -36.87699,-11.17231 -8.87208,2.57415 -22.55504,9.6562 -33.91384,17.55318 -5.69795,3.96139 -7.96079,6.56858 -8.85985,10.20812 -1.31782,5.33471 1.31703,10.32453 5.45145,10.32383 1.55844,-2.7e-4 3.31185,-0.84743 7.79269,-3.76508 12.37258,-8.05626 20.40823,-11.52512 26.08522,-11.26055 3.99333,0.18609 5.89068,1.78065 6.0967,5.12374 0.0887,1.44091 -0.004,1.91299 -0.65592,3.34259 -1.49899,3.28636 -4.74723,6.49395 -10.72026,10.58612 -3.42809,2.34862 -4.02412,2.73815 -10.23487,6.68901 -11.35575,7.22377 -17.48874,14.16804 -19.86217,22.48959 -0.536,1.87929 -0.6037,2.65075 -0.6037,6.87916 0,4.37275 0.0569,4.97256 0.69475,7.32921 1.33659,4.93793 3.59253,8.9169 7.37109,13.00089 3.77335,4.07836 7.81175,7.19097 16.73094,12.89545 2.91928,1.8671 5.1413,3.52686 6.87992,5.13904 4.79322,4.44464 6.27567,5.36782 6.71596,4.18228 z M 190.349,119.71559 c 10.2262,-1.29805 18.00715,-5.40915 24.56183,-12.97734 6.80477,-7.856954 9.83613,-18.38624 8.59108,-29.840653 -1.36609,-12.567929 -9.43702,-24.281782 -20.60592,-29.906719 -11.88233,-5.984227 -24.90145,-4.973714 -36.24626,2.813348 -4.99326,3.427358 -10.21738,9.70468 -12.76146,15.334198 -2.27525,5.034668 -3.08485,8.72645 -3.27503,14.934173 -0.17682,5.77175 0.2348,9.063206 1.70751,13.653854 1.67171,5.210905 3.89048,9.254479 7.10296,12.944649 6.36151,7.30743 14.54049,11.80804 23.49953,12.93095 2.18071,0.27333 5.73842,0.32773 7.42576,0.11354 z"
       id="path1-9-2" /></g></svg>
