<?xml version="1.0" encoding="UTF-8" standalone="no"?>
<!-- Created with Inkscape (http://www.inkscape.org/) -->

<svg
   width="210mm"
   height="297mm"
   viewBox="0 0 210 297"
   version="1.1"
   id="svg1"
   xml:space="preserve"
   inkscape:version="1.4 (e7c3feb1, 2024-10-09)"
   sodipodi:docname="logo-sogenio.svg"
   xmlns:inkscape="http://www.inkscape.org/namespaces/inkscape"
   xmlns:sodipodi="http://sodipodi.sourceforge.net/DTD/sodipodi-0.dtd"
   xmlns="http://www.w3.org/2000/svg"
   xmlns:svg="http://www.w3.org/2000/svg"><sodipodi:namedview
     id="namedview1"
     pagecolor="#505050"
     bordercolor="#ffffff"
     borderopacity="1"
     inkscape:showpageshadow="0"
     inkscape:pageopacity="0"
     inkscape:pagecheckerboard="1"
     inkscape:deskcolor="#505050"
     inkscape:document-units="mm"
     inkscape:zoom="0.59757076"
     inkscape:cx="445.13557"
     inkscape:cy="597.41879"
     inkscape:window-width="1856"
     inkscape:window-height="1173"
     inkscape:window-x="0"
     inkscape:window-y="44"
     inkscape:window-maximized="0"
     inkscape:current-layer="layer1" /><defs
     id="defs1">
    <!-- Gradient for the genie: electric blue head, electric green body, golden yellow lamp -->
    <linearGradient
       id="genieGradient"
       x1="0%"
       y1="0%"
       x2="0%"
       y2="100%">
      <!-- Electric blue for head (top) -->
      <stop offset="0%" style="stop-color:#00D4FF;stop-opacity:1" />
      <stop offset="15%" style="stop-color:#0096FF;stop-opacity:1" />
      <stop offset="30%" style="stop-color:#0080FF;stop-opacity:1" />
      <!-- Transition to electric green for body -->
      <stop offset="45%" style="stop-color:#00E5A0;stop-opacity:1" />
      <stop offset="60%" style="stop-color:#00FF87;stop-opacity:1" />
      <stop offset="70%" style="stop-color:#00E676;stop-opacity:1" />
      <!-- Golden yellow for lamp (bottom) -->
      <stop offset="80%" style="stop-color:#FFD700;stop-opacity:1" />
      <stop offset="90%" style="stop-color:#FFC107;stop-opacity:1" />
      <stop offset="100%" style="stop-color:#FFAB00;stop-opacity:1" />
    </linearGradient>
  </defs><g
     inkscape:label="Layer 1"
     inkscape:groupmode="layer"
     id="layer1"><path
       style="fill:url(#genieGradient);fill-opacity:1"
       d="m 114.07008,272.9215 c -1.08248,-0.45529 -1.45197,-1.56213 -0.87908,-2.63341 0.56607,-1.05854 1.83376,-1.95329 5.83572,-4.11894 3.30067,-1.78615 5.40191,-3.0422 5.40191,-3.2291 0,-0.0589 -1.11183,-0.47756 -2.47074,-0.93028 -3.04504,-1.01445 -5.5694,-2.56214 -10.36155,-6.35266 -4.06745,-3.2173 -9.1805,-6.56705 -14.684365,-9.6203 -4.27301,-2.37044 -5.09826,-3.04282 -4.97979,-4.05734 0.11429,-0.97873 1.22846,-1.59177 3.82575,-2.10501 2.13594,-0.42208 2.46146,-0.42079 15.349985,0.0611 2.49627,0.0933 4.87402,0.0855 5.28389,-0.0174 0.4316,-0.10832 1.86198,-1.28578 3.39883,-2.79784 3.14872,-3.09792 4.58863,-3.87751 7.63778,-4.13526 1.11501,-0.0943 2.0273,-0.19479 2.0273,-0.22342 0,-0.0286 -0.23813,-0.74417 -0.52917,-1.59009 -0.6562,-1.90727 -0.66835,-3.90135 -0.0323,-5.30156 0.26688,-0.58752 1.17006,-1.80791 2.00707,-2.71198 1.34439,-1.4521 1.63743,-1.64376 2.51328,-1.64376 0.85822,0 1.17589,0.19502 2.36385,1.45111 0.75482,0.79811 1.60292,1.95897 1.88466,2.57969 0.70268,1.54811 0.69734,4.42485 -0.0111,5.98612 -0.28785,0.63435 -0.52336,1.18312 -0.52336,1.21947 0,0.0364 1.0139,0.12936 2.25311,0.20667 3.61723,0.22567 5.88728,1.70739 8.52321,5.56329 1.16864,1.70953 1.60718,1.64592 3.88802,-0.56397 2.06386,-1.99966 3.09916,-2.61484 5.80259,-3.44798 4.04732,-1.2473 9.07063,-0.2007 12.0782,2.51645 2.08331,1.88215 3.21288,5.81225 2.67217,9.29725 -0.57548,3.70904 -1.81834,6.17583 -4.14225,8.22142 -1.89524,1.66825 -4.12705,2.2742 -11.36359,3.08527 -4.41203,0.49449 -4.29409,0.46227 -6.39191,1.74628 -3.32284,2.0338 -7.16839,3.66497 -8.6642,3.6751 -1.5489,0.0105 2.47505,2.34045 7.0716,4.09462 3.12142,1.19122 4.41263,2.28411 4.41263,3.73485 0,1.22533 -0.97084,2.22524 -2.17078,2.23576 -19.02461,0.16685 -36.38547,0.0758 -37.02735,-0.19416 z m 43.94601,-21.77978 c 4.83799,-1.27218 6.82527,-2.3596 7.58935,-4.15281 1.30683,-3.06701 -1.00117,-6.16006 -4.59658,-6.16006 -3.17617,0 -4.16032,1.08469 -5.47935,6.03909 -0.51236,1.92444 -1.11474,3.85324 -1.33864,4.2862 -0.39401,0.76194 -0.38775,0.78715 0.19503,0.78552 0.33116,-9.3e-4 1.96474,-0.36 3.63019,-0.79794 z M 90.711285,233.76634 c -0.20673,-0.53872 1.62961,-4.43672 3.34135,-7.0927 0.6565,-1.01865 2.0009,-2.86412 2.98755,-4.10104 6.599825,-8.27398 9.586075,-15.97485 8.645925,-22.29595 -1.04096,-6.99891 -5.29802,-11.53189 -18.140265,-19.316 -16.02667,-9.7143 -19.96896,-12.43931 -25.04616,-17.31253 -4.30553,-4.13255 -7.406119,-8.25178 -9.765219,-12.9734 -2.82073,-5.64554 -3.58931,-8.94821 -3.55644,-15.28233 0.0275,-5.29977 0.44536,-7.2753 2.36267,-11.17032 5.911689,-12.00959 20.201389,-16.19937 38.104359,-11.17231 9.16736,2.57415 23.305725,9.6562 35.042585,17.55318 5.88759,3.96139 8.22574,6.56858 9.15473,10.20812 1.36168,5.33471 -1.36087,10.32453 -5.63289,10.32383 -1.61031,-2.7e-4 -3.42208,-0.84743 -8.05206,-3.76508 -12.78437,-8.05626 -21.087465,-11.52512 -26.953405,-11.26055 -4.12624,0.18609 -6.08673,1.78065 -6.29961,5.12374 -0.0917,1.44091 0.004,1.91299 0.67775,3.34259 1.54888,3.28636 4.90523,6.49395 11.07706,10.58612 3.542185,2.34862 4.158045,2.73815 10.575505,6.68901 11.73371,7.22377 18.07082,14.16804 20.52324,22.48959 0.55384,1.87929 0.6238,2.65075 0.6238,6.87916 0,4.37275 -0.0588,4.97256 -0.71788,7.32921 -1.38107,4.93793 -3.7121,8.9169 -7.61642,13.00089 -3.89894,4.07836 -8.07174,7.19097 -17.28779,12.89545 -3.01644,1.8671 -5.312415,3.52686 -7.108895,5.13904 -4.95276,4.44464 -6.48455,5.36782 -6.93949,4.18228 z M 103.12968,108.0958 c -10.566555,-1.29805 -18.606475,-5.40915 -25.379315,-12.977352 -7.03125,-7.856944 -10.16351,-18.386237 -8.87702,-29.84065 1.41156,-12.567929 9.75111,-24.281782 21.29175,-29.906719 12.277795,-5.984227 25.730235,-4.973714 37.452635,2.813348 5.15944,3.427358 10.55744,9.70468 13.18619,15.334198 2.35098,5.034668 3.18753,8.72645 3.38403,14.934173 0.18271,5.77175 -0.24261,9.063206 -1.76434,13.653854 -1.72734,5.210913 -4.01996,9.254478 -7.33936,12.944641 -6.57324,7.307447 -15.02444,11.808057 -24.28166,12.930967 -2.25329,0.27333 -5.92941,0.32773 -7.67291,0.11354 z"
       id="path1" /></g></svg>
