<?xml version="1.0" standalone="no"?>
<!DOCTYPE svg PUBLIC "-//W3C//DTD SVG 20010904//EN"
 "http://www.w3.org/TR/2001/REC-SVG-20010904/DTD/svg10.dtd">
<svg version="1.0" xmlns="http://www.w3.org/2000/svg"
 width="2048.000000pt" height="2048.000000pt" viewBox="0 0 2048.000000 2048.000000"
 preserveAspectRatio="xMidYMid meet">
<metadata>
Created by potrace 1.16, written by Peter Selinger 2001-2019
</metadata>
<g transform="translate(0.000000,2048.000000) scale(0.100000,-0.100000)"
fill="#000000" stroke="none">
<path class="bubble" d="M10139 16788 c-9 -7 -45 -58 -81 -113 -36 -55 -96 -147 -134 -205
-38 -58 -72 -112 -77 -120 -4 -8 -20 -34 -35 -57 -68 -106 -99 -158 -284 -475
-247 -426 -313 -566 -373 -796 -44 -163 -30 -339 38 -512 34 -84 111 -220 177
-310 22 -30 50 -69 61 -87 11 -17 27 -34 36 -37 11 -5 1309 -10 1400 -7 26 2
141 166 213 306 141 273 159 483 65 745 -32 89 -200 431 -270 549 -5 9 -48 83
-95 165 -47 81 -92 158 -100 171 -8 13 -32 52 -53 87 -21 34 -73 119 -117 188
-44 69 -95 152 -115 185 -20 33 -66 108 -103 166 -112 177 -119 184 -153 157z"/>
<path class="thin-band" d="M2323 14911 c-158 -25 -217 -43 -342 -106 -80 -40 -108 -61 -192
-145 -175 -177 -263 -438 -276 -820 -3 -85 0 -225 6 -310 18 -247 39 -466 50
-507 5 -21 12 -63 16 -93 3 -30 13 -89 21 -130 38 -184 56 -269 71 -325 8 -33
21 -85 28 -115 12 -51 25 -101 76 -285 66 -241 96 -333 162 -501 31 -78 75
-168 128 -264 27 -48 94 -145 123 -180 122 -140 292 -286 428 -365 10 -5 59
-34 110 -63 51 -29 100 -57 108 -62 25 -15 271 -136 335 -165 33 -15 89 -41
125 -57 36 -16 79 -36 95 -43 17 -7 50 -22 75 -33 63 -28 325 -140 385 -164
28 -11 64 -27 80 -34 17 -7 80 -34 140 -59 130 -54 133 -56 207 -89 31 -14 61
-26 67 -26 5 0 22 -7 38 -15 15 -8 78 -35 138 -61 216 -91 515 -236 664 -322
187 -107 379 -270 528 -446 20 -24 38 -36 50 -34 21 4 21 6 3 188 -20 214 19
649 81 891 10 42 19 79 19 82 0 10 -54 57 -66 57 -6 0 -22 8 -35 18 -23 18
-46 31 -194 112 -33 18 -67 39 -76 46 -8 8 -19 14 -23 14 -6 0 -265 144 -306
170 -8 6 -24 14 -35 19 -11 5 -60 32 -110 61 -49 29 -99 56 -110 61 -11 5 -27
13 -35 19 -31 19 -229 130 -233 130 -3 0 -92 50 -198 111 -107 61 -203 115
-214 120 -11 5 -27 13 -35 19 -8 5 -123 70 -255 145 -132 74 -247 139 -255
145 -8 5 -37 21 -65 35 -77 41 -219 134 -280 184 -186 155 -286 344 -414 781
-119 411 -144 779 -62 938 67 131 213 212 380 212 86 0 403 -53 571 -95 30 -7
73 -16 95 -20 22 -3 63 -12 90 -20 28 -7 95 -23 150 -35 55 -13 120 -28 145
-35 25 -7 61 -16 80 -20 19 -4 64 -15 100 -25 36 -10 94 -26 130 -35 144 -38
329 -91 405 -117 106 -36 239 -91 267 -110 14 -10 29 -18 34 -18 11 0 107 -82
141 -120 38 -44 92 -139 120 -210 56 -144 123 -457 143 -666 5 -55 12 -107 15
-115 3 -8 11 -70 19 -139 35 -295 73 -482 143 -689 13 -40 28 -81 33 -90 4 -9
29 -65 55 -126 26 -60 49 -112 51 -114 10 -11 40 32 83 119 85 170 201 355
340 540 78 103 97 125 271 303 80 82 149 156 154 164 6 11 2 30 -12 57 -32 64
-51 117 -58 161 -3 22 -10 54 -15 71 -9 29 -21 113 -49 339 -6 50 -20 153 -30
230 -10 77 -24 181 -30 230 -45 361 -60 432 -126 570 -75 156 -207 256 -494
375 -41 18 -89 38 -107 46 -17 8 -36 14 -43 14 -7 0 -24 6 -38 14 -31 16 -145
60 -307 118 -60 22 -135 48 -165 59 -30 11 -75 26 -100 34 -85 26 -145 47
-160 54 -8 4 -55 20 -105 35 -49 16 -106 34 -125 41 -60 23 -147 50 -300 95
-36 10 -96 28 -135 40 -38 12 -92 28 -120 35 -130 37 -206 58 -270 76 -38 10
-104 28 -145 39 -79 22 -214 55 -290 71 -25 5 -72 16 -105 24 -99 23 -266 53
-335 60 -36 4 -84 11 -108 16 -69 15 -377 40 -532 44 -104 2 -177 -2 -257 -14z"/>
<path class="thick-band" d="M9710 13760 c-195 -4 -362 -10 -370 -13 -8 -3 -73 -11 -145 -17 -253
-20 -535 -96 -735 -198 -170 -87 -342 -240 -444 -394 -61 -93 -93 -180 -72
-196 21 -17 111 -41 196 -52 46 -6 88 -14 91 -16 4 -2 56 -11 116 -19 59 -9
116 -18 125 -21 9 -2 74 -11 145 -19 70 -8 164 -19 208 -25 309 -38 489 -49
988 -59 451 -8 1223 2 1402 19 158 15 294 30 375 41 41 5 128 16 193 24 65 8
127 17 139 20 11 4 59 13 106 20 107 16 264 49 317 67 51 17 51 39 0 128 -130
225 -288 378 -510 493 -296 152 -681 213 -1405 220 -201 2 -525 0 -720 -3z"/>
<path class="heart" d="M19080 12689 c-19 -4 -73 -13 -120 -19 -47 -7 -110 -18 -140 -25 -30
-7 -77 -16 -105 -20 -27 -4 -75 -13 -105 -20 -30 -7 -100 -23 -155 -35 -55
-13 -129 -31 -164 -41 -35 -11 -71 -19 -80 -19 -8 0 -33 -6 -56 -14 -22 -8
-87 -26 -145 -41 -58 -15 -119 -34 -137 -41 -17 -8 -38 -14 -47 -14 -8 0 -33
-6 -53 -14 -21 -8 -78 -26 -128 -41 -109 -33 -652 -214 -750 -250 -38 -15 -88
-32 -110 -40 -39 -13 -172 -62 -305 -111 -36 -14 -83 -31 -105 -39 -22 -7 -87
-32 -145 -55 -58 -23 -123 -48 -145 -55 -22 -8 -69 -25 -105 -38 -36 -14 -103
-39 -150 -56 -47 -17 -94 -36 -105 -41 -11 -5 -60 -23 -110 -40 -49 -16 -148
-50 -220 -75 -71 -25 -166 -57 -210 -71 -44 -14 -96 -31 -115 -39 -52 -19
-247 -79 -375 -113 -229 -63 -404 -81 -613 -65 -185 14 -284 47 -484 158 -105
57 -228 158 -418 340 -83 80 -159 145 -169 145 -9 0 -37 -6 -62 -14 -24 -7
-89 -23 -144 -35 -55 -12 -129 -28 -165 -36 -36 -8 -98 -19 -139 -25 -40 -6
-77 -12 -81 -15 -4 -3 -43 -9 -86 -15 -44 -5 -124 -17 -179 -25 -93 -13 -157
-22 -355 -45 -209 -25 -448 -44 -830 -66 -236 -13 -411 -15 -880 -11 -322 2
-657 10 -745 16 -88 6 -223 16 -300 21 -148 10 -297 24 -430 40 -44 6 -136 17
-205 25 -69 7 -145 18 -170 23 -25 6 -74 13 -110 17 -36 3 -96 12 -135 20 -38
8 -97 19 -130 24 -57 10 -175 34 -315 64 -36 8 -89 22 -119 31 -81 24 -123 21
-163 -11 -132 -110 -206 -178 -330 -304 -180 -182 -316 -360 -476 -624 -13
-21 -132 -262 -163 -331 -11 -23 -19 -48 -19 -56 0 -8 -4 -18 -9 -23 -14 -15
-58 -152 -110 -345 -7 -25 -19 -83 -27 -129 -7 -47 -16 -92 -20 -100 -11 -29
-44 -414 -44 -523 0 -132 25 -427 44 -528 9 -41 20 -100 26 -130 19 -103 109
-408 129 -435 4 -5 17 -37 30 -70 32 -81 124 -272 179 -370 226 -403 599 -821
980 -1098 73 -54 134 -97 136 -97 2 0 43 -24 92 -54 49 -29 118 -68 154 -85
36 -18 72 -36 80 -41 13 -8 38 -19 165 -75 17 -7 55 -23 85 -35 30 -12 69 -28
85 -36 17 -7 46 -17 65 -23 19 -5 67 -21 105 -36 39 -14 85 -30 103 -35 19 -4
46 -13 60 -19 15 -5 46 -15 68 -21 31 -7 43 -16 48 -34 5 -22 -22 -111 -59
-193 -8 -17 -15 -33 -15 -36 0 -16 -93 -164 -148 -235 -127 -164 -293 -323
-562 -538 -127 -101 -284 -214 -298 -214 -5 0 -21 -13 -36 -29 l-28 -29 23
-15 c49 -31 243 -69 579 -112 63 -8 142 -19 175 -24 33 -6 94 -13 135 -16 41
-3 129 -12 195 -20 66 -8 251 -25 410 -37 262 -19 367 -22 1080 -22 562 -1
830 3 930 12 77 7 233 19 347 27 114 8 218 17 230 20 13 3 82 9 153 15 72 5
175 16 230 24 55 9 134 20 175 25 139 19 271 41 328 56 31 8 66 15 79 15 27 0
103 28 121 45 11 10 2 20 -45 54 -479 344 -632 476 -819 708 -124 154 -164
219 -239 388 -53 120 -50 164 11 165 20 0 97 21 219 59 33 10 94 29 135 41 41
12 91 28 110 35 140 51 278 103 305 115 207 88 386 175 549 266 66 36 124 70
130 75 6 6 47 33 90 62 117 77 119 79 172 123 27 23 78 65 114 94 77 63 340
325 426 425 34 39 166 203 294 365 336 424 417 516 765 865 322 323 549 532
814 750 47 39 94 78 105 87 28 23 258 199 286 218 12 8 46 33 76 55 29 22 77
57 106 78 29 21 94 67 143 103 50 36 142 100 205 142 63 42 120 80 125 85 17
14 233 154 288 187 29 17 75 45 102 62 73 45 308 179 400 229 44 23 98 53 120
65 62 34 573 289 640 319 33 15 92 42 130 60 39 18 120 54 180 80 61 25 124
52 140 59 27 12 107 43 270 107 28 10 55 19 60 19 6 1 28 9 50 20 22 11 46 19
53 20 8 0 28 6 45 14 18 8 48 19 67 25 19 5 67 22 105 36 39 15 84 30 100 34
29 8 217 69 280 92 17 6 46 15 65 21 69 19 165 60 184 78 28 27 12 54 -57 98
-66 41 -107 61 -227 112 -41 17 -88 38 -105 45 -16 7 -42 17 -58 20 -15 4 -30
11 -33 16 -3 5 -13 9 -22 9 -9 0 -29 6 -44 14 -14 8 -43 19 -65 26 -21 7 -42
16 -48 20 -5 4 -28 13 -50 20 -22 7 -44 16 -50 19 -5 4 -44 20 -85 36 -132 51
-179 91 -164 138 4 12 29 68 55 124 27 56 49 111 49 122 0 24 -36 51 -65 50
-11 -1 -36 -5 -55 -10z"/>
<path class="thick-band" d="M12640 12683 c-51 -6 -146 -25 -190 -38 -127 -38 -552 -120 -690
-135 -47 -4 -112 -13 -145 -18 -33 -6 -100 -13 -150 -17 -49 -3 -148 -12 -220
-20 -236 -26 -971 -38 -1504 -26 -264 7 -518 16 -563 22 -46 5 -156 16 -246
24 -89 8 -166 16 -170 19 -5 3 -54 10 -110 15 -57 6 -142 18 -190 26 -48 9
-139 25 -202 36 -63 10 -146 26 -185 34 -287 62 -298 64 -394 64 -102 1 -154
-21 -214 -91 -120 -138 -96 -306 53 -374 45 -21 145 -50 235 -69 39 -8 86 -19
105 -24 19 -5 60 -12 90 -16 30 -3 69 -10 85 -15 64 -19 504 -84 645 -95 41
-3 140 -12 220 -20 140 -14 375 -27 800 -45 275 -12 674 -12 955 0 390 16 826
39 834 44 4 3 65 10 137 16 71 5 154 15 184 20 30 5 100 14 155 20 55 5 141
17 190 25 50 9 144 25 210 36 309 53 467 106 529 179 34 41 60 123 52 170 -14
91 -82 191 -149 223 -38 18 -121 34 -157 30z"/>
<path class="thick-band" d="M4675 8770 c-152 -42 -312 -195 -405 -390 -64 -134 -90 -314 -71
-498 11 -101 20 -141 63 -272 21 -65 89 -201 114 -231 8 -8 14 -19 14 -23 0
-9 66 -92 119 -150 95 -102 258 -209 412 -269 166 -65 377 -93 577 -76 111 9
296 50 317 70 5 5 15 9 23 9 41 0 237 103 380 200 140 95 242 184 242 211 0
11 -33 67 -72 124 -85 122 -148 221 -200 314 -53 94 -195 381 -203 411 -4 14
-13 34 -20 45 -6 11 -18 37 -24 58 -18 55 -35 34 -60 -72 -26 -110 -51 -169
-107 -247 -133 -189 -343 -277 -540 -226 -233 61 -350 177 -404 402 -21 91
-25 175 -9 255 57 297 51 332 -61 365 -15 4 -49 0 -85 -10z"/>
<path class="bubble" d="M7263 4641 c-35 -44 -138 -268 -176 -381 -31 -94 -64 -215 -82 -307
-11 -54 22 -74 215 -125 162 -43 229 -58 415 -92 50 -9 122 -23 160 -31 39 -8
97 -17 130 -21 33 -3 80 -10 105 -16 70 -15 387 -50 620 -68 307 -24 415 -30
825 -46 639 -25 1354 -15 1950 26 243 17 498 40 555 50 30 5 91 12 135 15 44
4 105 11 135 16 30 6 105 16 165 24 61 7 137 19 170 25 201 38 274 53 310 62
22 5 67 15 100 22 33 7 76 18 95 24 19 6 77 24 129 39 112 33 122 46 98 120
-8 26 -18 64 -22 83 -8 39 -43 154 -56 185 -4 11 -20 52 -35 90 -34 90 -95
212 -136 276 -38 57 -64 68 -122 50 -106 -32 -371 -87 -511 -107 -49 -6 -121
-17 -160 -23 -83 -12 -205 -27 -332 -41 -51 -6 -137 -15 -190 -21 -54 -5 -154
-14 -223 -20 -69 -5 -192 -16 -275 -24 -82 -8 -370 -20 -640 -26 -540 -14
-1240 -2 -1560 26 -93 8 -228 19 -300 24 -185 14 -335 30 -450 46 -55 8 -142
19 -194 25 -51 6 -97 13 -102 15 -4 3 -56 12 -114 20 -59 9 -111 17 -115 20
-4 3 -50 11 -101 20 -113 18 -271 50 -319 64 -53 16 -73 13 -97 -18z"/>
</g>
<defs><linearGradient id="grad-thick-band" gradientUnits="userSpaceOnUse" x1="0" y1="20480" x2="20480" y2="0"><stop offset="0%" stop-color="#1A237E"/><stop offset="50%" stop-color="#4A0072"/><stop offset="100%" stop-color="#004080"/></linearGradient><linearGradient id="grad-thin-band" gradientUnits="userSpaceOnUse" x1="0" y1="20480" x2="20480" y2="0"><stop offset="0%" stop-color="#1A237E"/><stop offset="50%" stop-color="#4A0072"/><stop offset="100%" stop-color="#004080"/></linearGradient></defs><style>.heart{fill:#4A0072}.thick-band{fill:url(#grad-thick-band)}.thin-band{fill:url(#grad-thin-band)}.bubble{fill:#1A237E}</style>
</svg>
