<svg xmlns="http://www.w3.org/2000/svg" width="682.667" height="682.667" style="--color-primary:#000000;--color-secondary:#000000;--color-tertiary:#000000;--color-accent:#000000" viewBox="0 0 512 512"><style>.secondary{fill:var(--color-secondary);fill:#000}</style><path d="M2410 4941c0-5 9-31 20-56 119-279 114-590-16-864-66-140-124-212-394-486-136-137-260-270-277-295-42-62-139-249-147-281-9-39-44-79-70-79-30 0-60 34-85 98-27 67-28 203-4 319 9 45 13 86 9 90-10 10-107-94-184-196-154-205-305-516-372-764-55-206-65-283-65-492 0-202 8-269 52-455 57-237 179-495 321-672 117-147 326-321 500-417 269-148 652-242 920-228 384 22 726 141 997 347 66 50 149 119 183 153 66 65 207 246 258 332 69 117 173 392 189 500 4 28 11 60 16 72 4 12 15 93 24 179 14 131 15 179 5 279-24 257-71 454-167 700-56 142-155 327-221 414-23 31-26 33-33 15-4-10-8-46-8-79-2-95-28-229-56-289-50-105-143-155-263-143-74 8-128 46-167 117l-30 55 1 195c0 108 6 213 12 235 21 76 35 259 29 385-7 139-27 233-84 378-136 348-402 649-778 881-100 62-115 68-115 52m-680-2815c162-41 317-129 415-238 53-59 75-91 127-188 143-265 59-498-210-585-78-25-221-17-327 19-243 82-454 307-511 543-19 81-18 218 2 278 28 79 103 143 204 171 61 17 232 16 300 0m1960-2c93-28 174-93 205-167 35-84 28-234-16-357-101-279-399-500-674-500-132 0-228 40-305 127-66 76-83 116-88 214-7 132 20 221 106 359 89 142 274 273 456 320 91 24 242 26 316 4" style="fill:#000" transform="matrix(.1 0 0 -.1 0 512)"/><path d="M180.9 320.7c-3.8 2.3-7.7 8.7-10 16.6-3.1 9.9-2.4 26.8 1.2 34.7 9.7 20.9 29.1 22.6 38.7 3.4 2.9-5.7 5.6-19.7 4.8-24.8-1.6-10.4-12.1-23.2-23.7-28.9-6.1-3.1-7.5-3.2-11-1M323 321.1c-4.7 1.5-13.1 7.2-17.5 12.1-7.7 8.5-9.9 18.4-7 31.4s8.8 20.8 17.7 23.3c9.4 2.6 18.9-3.4 25.1-15.8 3.1-6.4 3.2-6.9 3.2-19.1-.1-14.5-2-20.9-8.3-27.9-4.1-4.6-7.6-5.6-13.2-4" class="secondary"/></svg>